<?xml version="1.0" encoding="UTF-8"?><svg id="a" xmlns="http://www.w3.org/2000/svg" viewBox="0 0 149.43 38"><path d="M95.38,21.99v7.67h-2.38V9.36h5.58c2.17,0,3.85.53,5.05,1.59s1.79,2.55,1.79,4.47-.66,3.5-1.99,4.73-3.12,1.84-5.37,1.84h-2.68ZM95.38,11.51v8.33h2.49c1.64,0,2.9-.38,3.76-1.13.86-.75,1.29-1.81,1.29-3.18,0-2.68-1.59-4.02-4.76-4.02h-2.79Z" style="fill:#222934;"/><path d="M114.64,30c-2.14,0-3.85-.68-5.13-2.03s-1.92-3.15-1.92-5.39c0-2.44.67-4.34,2-5.71,1.33-1.37,3.13-2.05,5.4-2.05s3.85.67,5.06,2c1.21,1.33,1.82,3.18,1.82,5.54s-.65,4.17-1.96,5.56-3.06,2.09-5.26,2.09ZM114.81,16.78c-1.49,0-2.67.51-3.54,1.52s-1.3,2.41-1.3,4.2.44,3.07,1.32,4.06c.88.99,2.05,1.49,3.53,1.49s2.66-.49,3.46-1.46c.81-.97,1.21-2.36,1.21-4.15s-.4-3.21-1.21-4.19c-.81-.98-1.96-1.47-3.46-1.47Z" style="fill:#222934;"/><path d="M128.99,21.99v7.67h-2.38V9.36h5.58c2.17,0,3.85.53,5.05,1.59s1.79,2.55,1.79,4.47-.66,3.5-1.99,4.73-3.12,1.84-5.37,1.84h-2.68ZM128.99,11.51v8.33h2.49c1.64,0,2.9-.38,3.76-1.13.86-.75,1.29-1.81,1.29-3.18,0-2.68-1.59-4.02-4.76-4.02h-2.79Z" style="fill:#222934;"/><path d="M21,8.41l8.24,3.88c.05,2.76-.01,6.67-.36,7.99-.97,3.68-2.63,6.4-4.93,8.08-1.33.97-2.51,1.3-2.95,1.39-.42-.09-1.51-.39-2.78-1.28-2.35-1.64-4.11-4.48-5.09-8.2-.35-1.32-.41-5.23-.36-7.99l8.24-3.88M21,6.47l-9.96,4.69s-.22,7.25.39,9.56c2.66,10.09,9.57,10.8,9.57,10.8,0,0,6.91-.71,9.57-10.8.61-2.31.39-9.56.39-9.56l-9.96-4.69h0Z" style="fill:#e1211b;"/><path d="M21.18,23.58c-1.94-.01-3.83-1.1-6.54-3.69-.27-.26-.41-.6-.41-.97,0-.37.15-.71.41-.97,2.63-2.52,4.56-3.57,6.44-3.52,1.8.05,3.61,1.1,6.23,3.61.3.28.46.67.46,1.08,0,.41-.16.79-.46,1.07-2.52,2.4-4.31,3.39-6.13,3.39ZM20.95,15.33c-1.33-.01-3.64,1.02-5.47,3.16-.2.24-.19.59.02.82,4.06,4.41,6.93,4.42,11.19.22h0c.24-.22.24-.62,0-.84-2.51-2.39-4.07-3.34-5.74-3.36Z" style="fill:#e11e19;"/><path d="M22.34,21.52l-.56-1.73,1.58.81c.19-.29.33-.62.41-.98.32-1.53-.65-3.02-2.18-3.35s-3.02.65-3.35,2.18c-.32,1.53.65,3.02,2.18,3.35.68.14,1.36.03,1.93-.28Z" style="fill:#e11e19; fill-rule:evenodd;"/><path d="M57.15,28.3c-1.5.79-3.37,1.19-5.61,1.19-2.89,0-5.2-.93-6.94-2.79s-2.61-4.3-2.61-7.32c0-3.25.98-5.87,2.93-7.87s4.43-3,7.43-3c1.93,0,3.52.28,4.79.84v2.53c-1.45-.81-3.06-1.22-4.81-1.22-2.33,0-4.22.78-5.67,2.34-1.45,1.56-2.17,3.64-2.17,6.24s.68,4.44,2.03,5.91c1.35,1.47,3.13,2.2,5.33,2.2,2.04,0,3.8-.45,5.3-1.36v2.31Z" style="fill:#222934;"/><path d="M64.39,29.15h-2.38V8.85h2.38v20.31Z" style="fill:#222934;"/><path d="M70.45,29.15V8.85h5.78c1.76,0,3.15.43,4.18,1.29,1.03.86,1.54,1.98,1.54,3.36,0,1.15-.31,2.15-.93,3s-1.48,1.45-2.58,1.81v.06c1.37.16,2.46.68,3.29,1.55.82.87,1.23,2.01,1.23,3.41,0,1.74-.62,3.14-1.87,4.22s-2.82,1.61-4.72,1.61h-5.92ZM72.83,11v6.56h2.44c1.3,0,2.33-.31,3.07-.94.75-.63,1.12-1.51,1.12-2.65,0-1.97-1.3-2.96-3.89-2.96h-2.73ZM72.83,19.69v7.31h3.23c1.4,0,2.48-.33,3.25-.99s1.15-1.57,1.15-2.72c0-2.4-1.63-3.6-4.9-3.6h-2.73Z" style="fill:#222934;"/></svg>